<svg xmlns="http://www.w3.org/2000/svg" xmlns:xlink="http://www.w3.org/1999/xlink" width="367" zoomAndPan="magnify" viewBox="0 0 275.25 62.249996" height="83" preserveAspectRatio="xMidYMid meet" version="1.0"><defs><g/><clipPath id="0cb4d6161c"><path d="M 18 9.121094 L 46 9.121094 L 46 49 L 18 49 Z M 18 9.121094 " clip-rule="nonzero"/></clipPath><clipPath id="fdd8cf2bee"><path d="M 27 17 L 61.925781 17 L 61.925781 51 L 27 51 Z M 27 17 " clip-rule="nonzero"/></clipPath></defs><path fill="#4b0e95" d="M 5.027344 20.042969 C 7.777344 17.332031 11.902344 16.605469 16.339844 17.617188 C 20.429688 18.550781 24.84375 20.984375 28.609375 24.699219 C 32.378906 28.410156 34.851562 32.757812 35.796875 36.78125 C 36.828125 41.160156 36.089844 45.222656 33.335938 47.9375 C 30.582031 50.648438 26.457031 51.375 22.011719 50.359375 C 17.925781 49.425781 13.511719 46.992188 9.742188 43.28125 C 5.976562 39.570312 3.503906 35.222656 2.554688 31.195312 C 1.523438 26.820312 2.265625 22.753906 5.015625 20.042969 Z M 15.332031 21.96875 C 12.394531 21.300781 9.796875 21.65625 8.222656 23.203125 L 8.226562 23.207031 C 6.65625 24.753906 6.292969 27.3125 6.972656 30.199219 C 7.734375 33.441406 9.789062 37.003906 12.953125 40.117188 C 16.117188 43.234375 19.734375 45.257812 23.023438 46.007812 C 25.957031 46.679688 28.554688 46.320312 30.125 44.773438 C 31.695312 43.226562 32.0625 40.664062 31.382812 37.777344 C 30.617188 34.539062 28.5625 30.976562 25.398438 27.859375 C 22.234375 24.742188 18.621094 22.71875 15.332031 21.96875 Z M 15.332031 21.96875 " fill-opacity="0.702" fill-rule="nonzero"/><g clip-path="url(#0cb4d6161c)"><path fill="#4b0e95" d="M 31.730469 9.144531 C 35.625 9.144531 39.070312 11.507812 41.484375 15.324219 C 43.703125 18.824219 45.074219 23.617188 45.074219 28.867188 C 45.074219 34.117188 43.703125 38.910156 41.484375 42.410156 C 39.070312 46.226562 35.625 48.589844 31.730469 48.589844 C 27.835938 48.589844 24.394531 46.226562 21.976562 42.410156 C 19.761719 38.910156 18.386719 34.117188 18.386719 28.867188 C 18.386719 23.617188 19.761719 18.824219 21.976562 15.324219 C 24.394531 11.507812 27.835938 9.144531 31.730469 9.144531 Z M 37.636719 17.683594 C 36.046875 15.171875 33.953125 13.617188 31.730469 13.617188 C 29.511719 13.617188 27.417969 15.171875 25.828125 17.683594 C 24.035156 20.507812 22.929688 24.460938 22.929688 28.867188 C 22.929688 33.273438 24.035156 37.226562 25.828125 40.050781 C 27.417969 42.5625 29.511719 44.117188 31.730469 44.117188 C 33.953125 44.117188 36.046875 42.5625 37.636719 40.050781 C 39.421875 37.226562 40.53125 33.273438 40.53125 28.867188 C 40.53125 24.460938 39.425781 20.507812 37.636719 17.683594 Z M 37.636719 17.683594 " fill-opacity="0.702" fill-rule="nonzero"/></g><g clip-path="url(#fdd8cf2bee)"><path fill="#4b0e95" d="M 58.445312 20.042969 C 61.199219 22.753906 61.9375 26.816406 60.90625 31.195312 C 59.960938 35.222656 57.488281 39.570312 53.71875 43.28125 C 49.949219 46.992188 45.535156 49.425781 41.449219 50.359375 C 37.003906 51.375 32.878906 50.644531 30.125 47.933594 C 27.371094 45.222656 26.632812 41.160156 27.664062 36.78125 C 28.609375 32.757812 31.082031 28.410156 34.847656 24.699219 L 34.851562 24.695312 C 38.621094 20.984375 43.035156 18.550781 47.121094 17.617188 C 51.5625 16.601562 55.691406 17.332031 58.445312 20.042969 Z M 56.488281 30.199219 C 57.167969 27.3125 56.804688 24.75 55.234375 23.207031 C 53.664062 21.660156 51.0625 21.300781 48.132812 21.96875 C 44.84375 22.71875 41.226562 24.742188 38.0625 27.855469 L 38.058594 27.859375 C 34.894531 30.976562 32.84375 34.539062 32.082031 37.777344 C 31.402344 40.664062 31.765625 43.226562 33.335938 44.773438 C 34.90625 46.316406 37.507812 46.679688 40.4375 46.007812 C 43.726562 45.257812 47.34375 43.234375 50.507812 40.117188 C 53.671875 37.003906 55.726562 33.441406 56.488281 30.199219 Z M 56.488281 30.199219 " fill-opacity="0.702" fill-rule="nonzero"/></g><g fill="#5d2b9f" fill-opacity="1"><g transform="translate(72.8679, 39.074459)"><g><path d="M 6.734375 -19.15625 L 6.734375 -8.046875 C 6.734375 -7.015625 6.972656 -6.21875 7.453125 -5.65625 C 7.929688 -5.09375 8.660156 -4.8125 9.640625 -4.8125 C 10.617188 -4.8125 11.359375 -5.09375 11.859375 -5.65625 C 12.359375 -6.226562 12.609375 -7.023438 12.609375 -8.046875 L 12.609375 -19.15625 L 17.9375 -19.15625 L 17.9375 -8.046875 C 17.9375 -6.285156 17.5625 -4.785156 16.8125 -3.546875 C 16.070312 -2.304688 15.0625 -1.375 13.78125 -0.75 C 12.507812 -0.125 11.09375 0.1875 9.53125 0.1875 C 7.976562 0.1875 6.585938 -0.125 5.359375 -0.75 C 4.140625 -1.375 3.179688 -2.300781 2.484375 -3.53125 C 1.785156 -4.757812 1.4375 -6.265625 1.4375 -8.046875 L 1.4375 -19.15625 Z M 6.734375 -19.15625 "/></g></g></g><g fill="#5d2b9f" fill-opacity="1"><g transform="translate(93.568085, 39.074459)"><g><path d="M 19.265625 0 L 13.9375 0 L 6.84375 -10.703125 L 6.84375 0 L 1.515625 0 L 1.515625 -19.15625 L 6.84375 -19.15625 L 13.9375 -8.3125 L 13.9375 -19.15625 L 19.265625 -19.15625 Z M 19.265625 0 "/></g></g></g><g fill="#5d2b9f" fill-opacity="1"><g transform="translate(115.707973, 39.074459)"><g><path d="M 8.75 0.1875 C 6.519531 0.1875 4.6875 -0.335938 3.25 -1.390625 C 1.820312 -2.453125 1.054688 -3.972656 0.953125 -5.953125 L 6.625 -5.953125 C 6.6875 -5.273438 6.890625 -4.78125 7.234375 -4.46875 C 7.578125 -4.164062 8.019531 -4.015625 8.5625 -4.015625 C 9.050781 -4.015625 9.453125 -4.132812 9.765625 -4.375 C 10.085938 -4.625 10.25 -4.96875 10.25 -5.40625 C 10.25 -5.96875 9.984375 -6.398438 9.453125 -6.703125 C 8.929688 -7.015625 8.082031 -7.363281 6.90625 -7.75 C 5.65625 -8.164062 4.644531 -8.566406 3.875 -8.953125 C 3.101562 -9.335938 2.429688 -9.90625 1.859375 -10.65625 C 1.285156 -11.414062 1 -12.398438 1 -13.609375 C 1 -14.835938 1.304688 -15.890625 1.921875 -16.765625 C 2.546875 -17.648438 3.398438 -18.316406 4.484375 -18.765625 C 5.566406 -19.222656 6.796875 -19.453125 8.171875 -19.453125 C 10.398438 -19.453125 12.179688 -18.929688 13.515625 -17.890625 C 14.847656 -16.847656 15.5625 -15.382812 15.65625 -13.5 L 9.859375 -13.5 C 9.847656 -14.082031 9.671875 -14.519531 9.328125 -14.8125 C 8.992188 -15.101562 8.566406 -15.25 8.046875 -15.25 C 7.640625 -15.25 7.3125 -15.128906 7.0625 -14.890625 C 6.8125 -14.648438 6.6875 -14.316406 6.6875 -13.890625 C 6.6875 -13.523438 6.828125 -13.207031 7.109375 -12.9375 C 7.390625 -12.675781 7.738281 -12.453125 8.15625 -12.265625 C 8.570312 -12.078125 9.1875 -11.835938 10 -11.546875 C 11.207031 -11.128906 12.207031 -10.71875 13 -10.3125 C 13.789062 -9.90625 14.46875 -9.332031 15.03125 -8.59375 C 15.601562 -7.863281 15.890625 -6.9375 15.890625 -5.8125 C 15.890625 -4.675781 15.601562 -3.65625 15.03125 -2.75 C 14.46875 -1.84375 13.644531 -1.125 12.5625 -0.59375 C 11.488281 -0.0703125 10.21875 0.1875 8.75 0.1875 Z M 8.75 0.1875 "/></g></g></g><g fill="#5d2b9f" fill-opacity="1"><g transform="translate(133.90902, 39.074459)"><g><path d="M 28.5 -19.15625 L 23.796875 0 L 17.25 0 L 14.625 -11.734375 L 11.921875 0 L 5.375 0 L 0.734375 -19.15625 L 6.5 -19.15625 L 8.71875 -6.0625 L 11.734375 -19.15625 L 17.578125 -19.15625 L 20.515625 -6.171875 L 22.75 -19.15625 Z M 28.5 -19.15625 "/></g></g></g><g fill="#5d2b9f" fill-opacity="1"><g transform="translate(164.497061, 39.074459)"><g/></g></g><g fill="#5d2b9f" fill-opacity="1"><g transform="translate(171.044567, 39.074459)"><g><path d="M 6.84375 -14.890625 L 6.84375 -11.765625 L 12.96875 -11.765625 L 12.96875 -7.71875 L 6.84375 -7.71875 L 6.84375 -4.265625 L 13.78125 -4.265625 L 13.78125 0 L 1.515625 0 L 1.515625 -19.15625 L 13.78125 -19.15625 L 13.78125 -14.890625 Z M 6.84375 -14.890625 "/></g></g></g><g fill="#5d2b9f" fill-opacity="1"><g transform="translate(187.289774, 39.074459)"><g><path d="M 8.75 0.1875 C 6.519531 0.1875 4.6875 -0.335938 3.25 -1.390625 C 1.820312 -2.453125 1.054688 -3.972656 0.953125 -5.953125 L 6.625 -5.953125 C 6.6875 -5.273438 6.890625 -4.78125 7.234375 -4.46875 C 7.578125 -4.164062 8.019531 -4.015625 8.5625 -4.015625 C 9.050781 -4.015625 9.453125 -4.132812 9.765625 -4.375 C 10.085938 -4.625 10.25 -4.96875 10.25 -5.40625 C 10.25 -5.96875 9.984375 -6.398438 9.453125 -6.703125 C 8.929688 -7.015625 8.082031 -7.363281 6.90625 -7.75 C 5.65625 -8.164062 4.644531 -8.566406 3.875 -8.953125 C 3.101562 -9.335938 2.429688 -9.90625 1.859375 -10.65625 C 1.285156 -11.414062 1 -12.398438 1 -13.609375 C 1 -14.835938 1.304688 -15.890625 1.921875 -16.765625 C 2.546875 -17.648438 3.398438 -18.316406 4.484375 -18.765625 C 5.566406 -19.222656 6.796875 -19.453125 8.171875 -19.453125 C 10.398438 -19.453125 12.179688 -18.929688 13.515625 -17.890625 C 14.847656 -16.847656 15.5625 -15.382812 15.65625 -13.5 L 9.859375 -13.5 C 9.847656 -14.082031 9.671875 -14.519531 9.328125 -14.8125 C 8.992188 -15.101562 8.566406 -15.25 8.046875 -15.25 C 7.640625 -15.25 7.3125 -15.128906 7.0625 -14.890625 C 6.8125 -14.648438 6.6875 -14.316406 6.6875 -13.890625 C 6.6875 -13.523438 6.828125 -13.207031 7.109375 -12.9375 C 7.390625 -12.675781 7.738281 -12.453125 8.15625 -12.265625 C 8.570312 -12.078125 9.1875 -11.835938 10 -11.546875 C 11.207031 -11.128906 12.207031 -10.71875 13 -10.3125 C 13.789062 -9.90625 14.46875 -9.332031 15.03125 -8.59375 C 15.601562 -7.863281 15.890625 -6.9375 15.890625 -5.8125 C 15.890625 -4.675781 15.601562 -3.65625 15.03125 -2.75 C 14.46875 -1.84375 13.644531 -1.125 12.5625 -0.59375 C 11.488281 -0.0703125 10.21875 0.1875 8.75 0.1875 Z M 8.75 0.1875 "/></g></g></g><g fill="#5d2b9f" fill-opacity="1"><g transform="translate(205.490826, 39.074459)"><g><path d="M 13.75 -12.859375 C 13.4375 -13.359375 13.015625 -13.742188 12.484375 -14.015625 C 11.953125 -14.285156 11.320312 -14.421875 10.59375 -14.421875 C 9.257812 -14.421875 8.207031 -13.984375 7.4375 -13.109375 C 6.664062 -12.242188 6.28125 -11.082031 6.28125 -9.625 C 6.28125 -7.96875 6.691406 -6.707031 7.515625 -5.84375 C 8.335938 -4.988281 9.535156 -4.5625 11.109375 -4.5625 C 12.972656 -4.5625 14.304688 -5.40625 15.109375 -7.09375 L 9.75 -7.09375 L 9.75 -10.921875 L 19.703125 -10.921875 L 19.703125 -5.765625 C 19.285156 -4.742188 18.671875 -3.789062 17.859375 -2.90625 C 17.054688 -2.019531 16.039062 -1.289062 14.8125 -0.71875 C 13.582031 -0.144531 12.175781 0.140625 10.59375 0.140625 C 8.675781 0.140625 6.976562 -0.269531 5.5 -1.09375 C 4.019531 -1.925781 2.878906 -3.078125 2.078125 -4.546875 C 1.273438 -6.023438 0.875 -7.71875 0.875 -9.625 C 0.875 -11.5 1.273438 -13.175781 2.078125 -14.65625 C 2.878906 -16.132812 4.015625 -17.285156 5.484375 -18.109375 C 6.953125 -18.929688 8.644531 -19.34375 10.5625 -19.34375 C 12.976562 -19.34375 14.972656 -18.765625 16.546875 -17.609375 C 18.117188 -16.453125 19.097656 -14.867188 19.484375 -12.859375 Z M 13.75 -12.859375 "/></g></g></g></svg>