<svg xmlns="http://www.w3.org/2000/svg" xmlns:xlink="http://www.w3.org/1999/xlink" width="326" zoomAndPan="magnify" viewBox="0 0 244.5 55.5" height="74" preserveAspectRatio="xMidYMid meet" version="1.0"><defs><g/><clipPath id="4e7b8ddb08"><path d="M 1.339844 15 L 33 15 L 33 46.855469 L 1.339844 46.855469 Z M 1.339844 15 " clip-rule="nonzero"/></clipPath><clipPath id="20278578c6"><path d="M 16 8.40625 L 41 8.40625 L 41 45 L 16 45 Z M 16 8.40625 " clip-rule="nonzero"/></clipPath><clipPath id="bb45f301b8"><path d="M 24 15 L 54.964844 15 L 54.964844 46.855469 L 24 46.855469 Z M 24 15 " clip-rule="nonzero"/></clipPath></defs><g clip-path="url(#4e7b8ddb08)"><path fill="#d4b0b5" d="M 4.449219 18.339844 C 6.894531 15.875 10.554688 15.214844 14.496094 16.136719 C 18.125 16.984375 22.042969 19.195312 25.386719 22.570312 C 28.734375 25.945312 30.929688 29.898438 31.769531 33.554688 C 32.683594 37.535156 32.027344 41.230469 29.582031 43.695312 C 27.140625 46.160156 23.476562 46.820312 19.53125 45.898438 C 15.902344 45.050781 11.984375 42.839844 8.636719 39.464844 C 5.292969 36.089844 3.097656 32.136719 2.253906 28.480469 C 1.339844 24.5 2 20.804688 4.441406 18.339844 Z M 13.597656 20.089844 C 10.992188 19.480469 8.683594 19.808594 7.289062 21.210938 L 7.292969 21.214844 C 5.898438 22.621094 5.574219 24.949219 6.175781 27.574219 C 6.855469 30.519531 8.679688 33.757812 11.488281 36.589844 C 14.296875 39.421875 17.507812 41.261719 20.425781 41.945312 C 23.03125 42.550781 25.339844 42.226562 26.734375 40.820312 C 28.128906 39.414062 28.453125 37.085938 27.847656 34.460938 C 27.171875 31.515625 25.347656 28.277344 22.539062 25.445312 C 19.730469 22.613281 16.519531 20.773438 13.597656 20.089844 Z M 13.597656 20.089844 " fill-opacity="0.702" fill-rule="nonzero"/></g><g clip-path="url(#20278578c6)"><path fill="#d4b0b5" d="M 28.160156 8.433594 C 31.617188 8.433594 34.671875 10.578125 36.816406 14.046875 C 38.785156 17.230469 40.003906 21.585938 40.003906 26.359375 C 40.003906 31.132812 38.785156 35.492188 36.816406 38.671875 C 34.671875 42.144531 31.613281 44.289062 28.160156 44.289062 C 24.699219 44.289062 21.644531 42.144531 19.496094 38.671875 C 17.53125 35.492188 16.3125 31.132812 16.3125 26.359375 C 16.3125 21.585938 17.53125 17.230469 19.496094 14.046875 C 21.644531 10.578125 24.699219 8.433594 28.160156 8.433594 Z M 33.398438 16.191406 C 31.988281 13.910156 30.128906 12.5 28.160156 12.5 C 26.1875 12.5 24.328125 13.910156 22.917969 16.191406 C 21.328125 18.761719 20.34375 22.355469 20.34375 26.359375 C 20.34375 30.367188 21.328125 33.960938 22.917969 36.527344 C 24.328125 38.8125 26.1875 40.222656 28.160156 40.222656 C 30.128906 40.222656 31.988281 38.8125 33.398438 36.527344 C 34.988281 33.960938 35.972656 30.367188 35.972656 26.359375 C 35.972656 22.355469 34.988281 18.761719 33.398438 16.191406 Z M 33.398438 16.191406 " fill-opacity="0.702" fill-rule="nonzero"/></g><g clip-path="url(#bb45f301b8)"><path fill="#d4b0b5" d="M 51.875 18.339844 C 54.316406 20.804688 54.972656 24.5 54.0625 28.480469 C 53.21875 32.136719 51.023438 36.089844 47.679688 39.464844 C 44.332031 42.835938 40.414062 45.050781 36.785156 45.898438 C 32.839844 46.820312 29.175781 46.160156 26.734375 43.695312 C 24.289062 41.230469 23.632812 37.535156 24.546875 33.554688 C 25.386719 29.898438 27.582031 25.945312 30.925781 22.570312 L 30.929688 22.566406 C 34.273438 19.195312 38.195312 16.984375 41.820312 16.132812 C 45.765625 15.210938 49.429688 15.875 51.875 18.339844 Z M 50.140625 27.574219 C 50.742188 24.949219 50.417969 22.621094 49.023438 21.214844 C 47.628906 19.808594 45.324219 19.480469 42.71875 20.089844 C 39.800781 20.769531 36.589844 22.609375 33.78125 25.441406 L 33.777344 25.445312 C 30.96875 28.277344 29.144531 31.515625 28.46875 34.460938 C 27.863281 37.085938 28.191406 39.414062 29.582031 40.820312 C 30.976562 42.222656 33.285156 42.550781 35.886719 41.945312 C 38.808594 41.261719 42.019531 39.421875 44.828125 36.589844 C 47.636719 33.757812 49.460938 30.519531 50.140625 27.574219 Z M 50.140625 27.574219 " fill-opacity="0.702" fill-rule="nonzero"/></g><g fill="#d4b0b5" fill-opacity="1"><g transform="translate(65.077821, 35.164654)"><g><path d="M 6.015625 -17.125 L 6.015625 -7.1875 C 6.015625 -6.257812 6.226562 -5.546875 6.65625 -5.046875 C 7.09375 -4.546875 7.75 -4.296875 8.625 -4.296875 C 9.5 -4.296875 10.15625 -4.550781 10.59375 -5.0625 C 11.039062 -5.570312 11.265625 -6.28125 11.265625 -7.1875 L 11.265625 -17.125 L 16.03125 -17.125 L 16.03125 -7.1875 C 16.03125 -5.613281 15.695312 -4.269531 15.03125 -3.15625 C 14.363281 -2.050781 13.457031 -1.21875 12.3125 -0.65625 C 11.175781 -0.101562 9.910156 0.171875 8.515625 0.171875 C 7.128906 0.171875 5.890625 -0.101562 4.796875 -0.65625 C 3.703125 -1.21875 2.84375 -2.050781 2.21875 -3.15625 C 1.59375 -4.257812 1.28125 -5.601562 1.28125 -7.1875 L 1.28125 -17.125 Z M 6.015625 -17.125 "/></g></g></g><g fill="#d4b0b5" fill-opacity="1"><g transform="translate(83.57096, 35.164654)"><g><path d="M 17.21875 0 L 12.453125 0 L 6.125 -9.5625 L 6.125 0 L 1.359375 0 L 1.359375 -17.125 L 6.125 -17.125 L 12.453125 -7.4375 L 12.453125 -17.125 L 17.21875 -17.125 Z M 17.21875 0 "/></g></g></g><g fill="#d4b0b5" fill-opacity="1"><g transform="translate(103.350301, 35.164654)"><g><path d="M 7.8125 0.171875 C 5.820312 0.171875 4.1875 -0.300781 2.90625 -1.25 C 1.632812 -2.195312 0.945312 -3.550781 0.84375 -5.3125 L 5.921875 -5.3125 C 5.972656 -4.71875 6.148438 -4.28125 6.453125 -4 C 6.765625 -3.726562 7.164062 -3.59375 7.65625 -3.59375 C 8.082031 -3.59375 8.4375 -3.703125 8.71875 -3.921875 C 9.007812 -4.140625 9.15625 -4.441406 9.15625 -4.828125 C 9.15625 -5.328125 8.921875 -5.710938 8.453125 -5.984375 C 7.984375 -6.265625 7.222656 -6.578125 6.171875 -6.921875 C 5.046875 -7.296875 4.140625 -7.65625 3.453125 -8 C 2.765625 -8.34375 2.164062 -8.847656 1.65625 -9.515625 C 1.144531 -10.191406 0.890625 -11.078125 0.890625 -12.171875 C 0.890625 -13.265625 1.164062 -14.203125 1.71875 -14.984375 C 2.269531 -15.773438 3.03125 -16.375 4 -16.78125 C 4.976562 -17.1875 6.082031 -17.390625 7.3125 -17.390625 C 9.300781 -17.390625 10.890625 -16.921875 12.078125 -15.984375 C 13.265625 -15.054688 13.898438 -13.75 13.984375 -12.0625 L 8.8125 -12.0625 C 8.800781 -12.582031 8.644531 -12.972656 8.34375 -13.234375 C 8.039062 -13.492188 7.65625 -13.625 7.1875 -13.625 C 6.832031 -13.625 6.539062 -13.515625 6.3125 -13.296875 C 6.082031 -13.085938 5.96875 -12.789062 5.96875 -12.40625 C 5.96875 -12.082031 6.09375 -11.800781 6.34375 -11.5625 C 6.59375 -11.332031 6.90625 -11.128906 7.28125 -10.953125 C 7.65625 -10.785156 8.207031 -10.570312 8.9375 -10.3125 C 10.019531 -9.945312 10.910156 -9.582031 11.609375 -9.21875 C 12.316406 -8.851562 12.925781 -8.34375 13.4375 -7.6875 C 13.945312 -7.03125 14.203125 -6.203125 14.203125 -5.203125 C 14.203125 -4.179688 13.945312 -3.265625 13.4375 -2.453125 C 12.925781 -1.640625 12.1875 -1 11.21875 -0.53125 C 10.257812 -0.0625 9.125 0.171875 7.8125 0.171875 Z M 7.8125 0.171875 "/></g></g></g><g fill="#d4b0b5" fill-opacity="1"><g transform="translate(119.61076, 35.164654)"><g><path d="M 25.46875 -17.125 L 21.265625 0 L 15.421875 0 L 13.0625 -10.484375 L 10.65625 0 L 4.8125 0 L 0.65625 -17.125 L 5.796875 -17.125 L 7.796875 -5.421875 L 10.484375 -17.125 L 15.703125 -17.125 L 18.328125 -5.515625 L 20.328125 -17.125 Z M 25.46875 -17.125 "/></g></g></g><g fill="#d4b0b5" fill-opacity="1"><g transform="translate(146.937515, 35.164654)"><g/></g></g><g fill="#d4b0b5" fill-opacity="1"><g transform="translate(152.786928, 35.164654)"><g><path d="M 6.125 -13.3125 L 6.125 -10.515625 L 11.578125 -10.515625 L 11.578125 -6.890625 L 6.125 -6.890625 L 6.125 -3.8125 L 12.3125 -3.8125 L 12.3125 0 L 1.359375 0 L 1.359375 -17.125 L 12.3125 -17.125 L 12.3125 -13.3125 Z M 6.125 -13.3125 "/></g></g></g><g fill="#d4b0b5" fill-opacity="1"><g transform="translate(167.300078, 35.164654)"><g><path d="M 7.8125 0.171875 C 5.820312 0.171875 4.1875 -0.300781 2.90625 -1.25 C 1.632812 -2.195312 0.945312 -3.550781 0.84375 -5.3125 L 5.921875 -5.3125 C 5.972656 -4.71875 6.148438 -4.28125 6.453125 -4 C 6.765625 -3.726562 7.164062 -3.59375 7.65625 -3.59375 C 8.082031 -3.59375 8.4375 -3.703125 8.71875 -3.921875 C 9.007812 -4.140625 9.15625 -4.441406 9.15625 -4.828125 C 9.15625 -5.328125 8.921875 -5.710938 8.453125 -5.984375 C 7.984375 -6.265625 7.222656 -6.578125 6.171875 -6.921875 C 5.046875 -7.296875 4.140625 -7.65625 3.453125 -8 C 2.765625 -8.34375 2.164062 -8.847656 1.65625 -9.515625 C 1.144531 -10.191406 0.890625 -11.078125 0.890625 -12.171875 C 0.890625 -13.265625 1.164062 -14.203125 1.71875 -14.984375 C 2.269531 -15.773438 3.03125 -16.375 4 -16.78125 C 4.976562 -17.1875 6.082031 -17.390625 7.3125 -17.390625 C 9.300781 -17.390625 10.890625 -16.921875 12.078125 -15.984375 C 13.265625 -15.054688 13.898438 -13.75 13.984375 -12.0625 L 8.8125 -12.0625 C 8.800781 -12.582031 8.644531 -12.972656 8.34375 -13.234375 C 8.039062 -13.492188 7.65625 -13.625 7.1875 -13.625 C 6.832031 -13.625 6.539062 -13.515625 6.3125 -13.296875 C 6.082031 -13.085938 5.96875 -12.789062 5.96875 -12.40625 C 5.96875 -12.082031 6.09375 -11.800781 6.34375 -11.5625 C 6.59375 -11.332031 6.90625 -11.128906 7.28125 -10.953125 C 7.65625 -10.785156 8.207031 -10.570312 8.9375 -10.3125 C 10.019531 -9.945312 10.910156 -9.582031 11.609375 -9.21875 C 12.316406 -8.851562 12.925781 -8.34375 13.4375 -7.6875 C 13.945312 -7.03125 14.203125 -6.203125 14.203125 -5.203125 C 14.203125 -4.179688 13.945312 -3.265625 13.4375 -2.453125 C 12.925781 -1.640625 12.1875 -1 11.21875 -0.53125 C 10.257812 -0.0625 9.125 0.171875 7.8125 0.171875 Z M 7.8125 0.171875 "/></g></g></g><g fill="#d4b0b5" fill-opacity="1"><g transform="translate(183.56054, 35.164654)"><g><path d="M 12.28125 -11.484375 C 12.007812 -11.941406 11.632812 -12.289062 11.15625 -12.53125 C 10.675781 -12.769531 10.113281 -12.890625 9.46875 -12.890625 C 8.269531 -12.890625 7.328125 -12.5 6.640625 -11.71875 C 5.953125 -10.945312 5.609375 -9.90625 5.609375 -8.59375 C 5.609375 -7.125 5.972656 -6.003906 6.703125 -5.234375 C 7.441406 -4.460938 8.519531 -4.078125 9.9375 -4.078125 C 11.601562 -4.078125 12.789062 -4.832031 13.5 -6.34375 L 8.71875 -6.34375 L 8.71875 -9.765625 L 17.609375 -9.765625 L 17.609375 -5.140625 C 17.234375 -4.234375 16.6875 -3.382812 15.96875 -2.59375 C 15.25 -1.800781 14.335938 -1.148438 13.234375 -0.640625 C 12.128906 -0.128906 10.875 0.125 9.46875 0.125 C 7.75 0.125 6.226562 -0.242188 4.90625 -0.984375 C 3.59375 -1.722656 2.578125 -2.75 1.859375 -4.0625 C 1.140625 -5.382812 0.78125 -6.894531 0.78125 -8.59375 C 0.78125 -10.28125 1.140625 -11.78125 1.859375 -13.09375 C 2.578125 -14.414062 3.59375 -15.441406 4.90625 -16.171875 C 6.21875 -16.910156 7.734375 -17.28125 9.453125 -17.28125 C 11.597656 -17.28125 13.375 -16.765625 14.78125 -15.734375 C 16.195312 -14.703125 17.070312 -13.285156 17.40625 -11.484375 Z M 12.28125 -11.484375 "/></g></g></g><g fill="#d4b0b5" fill-opacity="1"><g transform="translate(203.161056, 35.164654)"><g/></g></g></svg>